<?xml version="1.0" encoding="UTF-8"?>
<svg version="1.1" xmlns="http://www.w3.org/2000/svg" width="480" height="480">
<path d="M0 0 C158.4 0 316.8 0 480 0 C480 158.4 480 316.8 480 480 C321.6 480 163.2 480 0 480 C0 321.6 0 163.2 0 0 Z " fill="#FEFEFE" transform="translate(0,0)"/>
<path d="M0 0 C6.7629264 0.48374368 12.30527487 3.0422966 18.4375 5.8125 C19.53715088 6.30532471 20.63680176 6.79814941 21.76977539 7.3059082 C55.18406546 22.41740691 88.63323014 40.66455697 115.640625 65.859375 C118.19442001 68.17639431 120.85710144 70.30008567 123.5625 72.4375 C128.09018388 76.09668598 131.95404602 80.02500657 135.734375 84.4453125 C137.5500653 86.49265984 139.39613945 88.3780565 141.35546875 90.28125 C145.1453861 94.03871422 148.36454317 98.11073821 151.5625 102.375 C152.13258789 103.12958496 152.70267578 103.88416992 153.29003906 104.66162109 C157.04718568 109.66214774 160.7128067 114.67492406 164 120 C164.69480469 121.11503906 165.38960938 122.23007813 166.10546875 123.37890625 C187.19885073 157.62268658 201.17751407 201.67903822 192.94140625 242.203125 C189.15062217 257.34864238 182.38028109 271.32475315 172 283 C171.42121094 283.7321875 170.84242188 284.464375 170.24609375 285.21875 C155.68856042 303.07766778 133.4604998 312.45145973 111 315 C88.60790417 316.33822859 68.69160906 312.67109044 51 298 C51 297.34 51 296.68 51 296 C50.1646875 295.690625 50.1646875 295.690625 49.3125 295.375 C47.05303189 294.03153247 46.0001344 292.94842298 44.375 290.9375 C42.32880603 287.99175287 42.32880603 287.99175287 40 287 C40 286.34 40 285.68 40 285 C39.34 285 38.68 285 38 285 C40.92291032 297.97487021 43.99910045 309.92524041 53 320 C53.52207031 320.68578125 54.04414063 321.3715625 54.58203125 322.078125 C66.09188517 336.75248864 84.68491999 339.63151237 102 342 C71.75910584 372.76499977 21.97295647 382.84651294 -19.6875 383.29199219 C-21.1041559 383.30078058 -22.52082538 383.30758099 -23.9375 383.3125 C-24.66211426 383.31511841 -25.38672852 383.31773682 -26.13330078 383.32043457 C-44.41455225 383.32748908 -61.36464389 381.09783416 -77 371 C-77.33 370.01 -77.66 369.02 -78 368 C-77.09121094 367.78085937 -76.18242187 367.56171875 -75.24609375 367.3359375 C-50.83231266 361.17615273 -29.65242224 350.00608258 -16 328 C-12.17774897 320.51989584 -9.64791779 313.20253104 -8 305 C-8.81339844 305.87140625 -9.62679687 306.7428125 -10.46484375 307.640625 C-23.52621607 321.33668326 -37.85402554 331.10862765 -55 339 C-55.76957031 339.39574219 -56.53914062 339.79148437 -57.33203125 340.19921875 C-82.38557733 352.70128415 -114.63225537 351.83155393 -140.68359375 343.2890625 C-158.22366287 336.47136779 -172.88224381 326.47229014 -186 313 C-186.48339844 312.57332031 -186.96679688 312.14664062 -187.46484375 311.70703125 C-198.51487409 301.59300348 -205.96041833 287.52004038 -212 274 C-212.40863281 273.09378906 -212.81726563 272.18757813 -213.23828125 271.25390625 C-214.33899614 268.52974314 -215.19828209 265.82748726 -216 263 C-216.18046875 262.37899414 -216.3609375 261.75798828 -216.546875 261.11816406 C-219.76794191 249.53429336 -220.39804807 238.01877591 -220.4375 226.0625 C-220.44358276 225.36316345 -220.44966553 224.6638269 -220.45593262 223.94329834 C-220.50914746 214.59312086 -219.46359699 206.03450286 -217 197 C-216.58128105 195.22965081 -216.16428564 193.45889189 -215.75 191.6875 C-203.20160822 147.05662204 -165.61883855 114.79834464 -128.97949219 89.37841797 C-127.199841 88.13915914 -125.42999146 86.8876003 -123.6640625 85.62890625 C-115.40925555 79.79647968 -106.84754318 74.56291036 -98.20068359 69.33789062 C-94.94765576 67.36023447 -91.72289997 65.33875776 -88.5 63.3125 C-82.51619472 59.55397517 -76.50106554 55.84853602 -70.47631836 52.15600586 C-38.73609273 33.12876804 -38.73609273 33.12876804 -10 10 C-7.87554634 8.15593109 -5.73892667 6.32769598 -3.59375 4.5078125 C-1.76630898 2.89126371 -1.76630898 2.89126371 0 0 Z " fill="#0070AC" transform="translate(253,49)"/>
<path d="M0 0 C1.35308313 1.31328657 2.68870078 2.64499081 4 4 C4.99 4.495 4.99 4.495 6 5 C6 5.66 6 6.32 6 7 C6.5775 7.0825 7.155 7.165 7.75 7.25 C10.67794601 8.225982 12.05244537 9.63511223 14 12 C14 12.99 14 13.98 14 15 C14.66 15 15.32 15 16 15 C20.62936706 20.54966292 23.04225155 27.36844051 25.3125 34.125 C25.69390137 35.25204346 25.69390137 35.25204346 26.08300781 36.40185547 C32.79408012 57.2609639 28.58388898 78.43190457 19.125 97.6875 C15.80874938 104.0933168 11.79624966 109.60540632 7 115 C6.13181641 116.09828125 6.13181641 116.09828125 5.24609375 117.21875 C-9.31143958 135.07766778 -31.5395002 144.45145973 -54 147 C-76.39209583 148.33822859 -96.30839094 144.67109044 -114 130 C-114 129.34 -114 128.68 -114 128 C-114.556875 127.79375 -115.11375 127.5875 -115.6875 127.375 C-117.94696811 126.03153247 -118.9998656 124.94842298 -120.625 122.9375 C-122.67119397 119.99175287 -122.67119397 119.99175287 -125 119 C-125 118.34 -125 117.68 -125 117 C-125.66 117 -126.32 117 -127 117 C-124.07708968 129.97487021 -121.00089955 141.92524041 -112 152 C-111.47792969 152.68578125 -110.95585937 153.3715625 -110.41796875 154.078125 C-98.90811483 168.75248864 -80.31508001 171.63151237 -63 174 C-93.24089416 204.76499977 -143.02704353 214.84651294 -184.6875 215.29199219 C-186.1041559 215.30078058 -187.52082538 215.30758099 -188.9375 215.3125 C-189.66211426 215.31511841 -190.38672852 215.31773682 -191.13330078 215.32043457 C-209.41455225 215.32748908 -226.36464389 213.09783416 -242 203 C-242.33 202.01 -242.66 201.02 -243 200 C-241.63681641 199.67128906 -241.63681641 199.67128906 -240.24609375 199.3359375 C-215.81426966 193.17160034 -194.68174768 181.99916656 -181 160 C-177.66367979 153.6000051 -175.02003168 147.51999657 -174.25 140.3125 C-173.37387705 134.20645941 -169.9139484 131.05234998 -165.68359375 126.78515625 C-161.22085086 122.15351771 -156.89137012 116.78274024 -154 111 C-153.34 111 -152.68 111 -152 111 C-151.71125 110.278125 -151.4225 109.55625 -151.125 108.8125 C-150.75375 107.884375 -150.3825 106.95625 -150 106 C-149.71125 105.154375 -149.4225 104.30875 -149.125 103.4375 C-148 101 -148 101 -146.1484375 99.21484375 C-143.71538912 96.70659206 -142.20511188 94.17094985 -140.5 91.125 C-135.41958191 82.22610922 -135.41958191 82.22610922 -133 79 C-132.34 79 -131.68 79 -131 79 C-130.62875 77.72769531 -130.62875 77.72769531 -130.25 76.4296875 C-128.89164836 72.70271019 -127.07825785 69.47856263 -125 66.125 C-124.61062256 65.4865918 -124.22124512 64.84818359 -123.82006836 64.19042969 C-122.55455335 62.12200705 -121.27876321 60.06025597 -120 58 C-119.54898926 57.27200195 -119.09797852 56.54400391 -118.63330078 55.79394531 C-111.10001975 43.65002962 -111.10001975 43.65002962 -108 39 C-107.34 39 -106.68 39 -106 39 C-105.74605469 38.28457031 -105.49210938 37.56914062 -105.23046875 36.83203125 C-100.7643814 26.55294132 -91.2579997 15.44884412 -82 9 C-81.34 9 -80.68 9 -80 9 C-80 8.34 -80 7.68 -80 7 C-77.94672034 5.45396547 -75.91730743 4.0577468 -73.75 2.6875 C-73.11755371 2.28595703 -72.48510742 1.88441406 -71.83349609 1.47070312 C-50.92270808 -11.48927463 -21.81174535 -12.18857816 0 0 Z " fill="#13AADB" transform="translate(418,217)"/>
<path d="M0 0 C-2.63904371 1.41377341 -5.07120629 2.37240135 -8 3 C-7.34220815 6.13268527 -7.34220815 6.13268527 -4.890625 7.09765625 C-4.01921875 7.41605469 -3.1478125 7.73445313 -2.25 8.0625 C-0.95835937 8.54396484 -0.95835937 8.54396484 0.359375 9.03515625 C1.23078125 9.35355469 2.1021875 9.67195313 3 10 C3.75845215 10.33233643 4.5169043 10.66467285 5.29833984 11.00708008 C10.29475389 12.84337286 15.60901633 13.06037593 20.875 13.625 C22.58429688 13.82609375 22.58429688 13.82609375 24.328125 14.03125 C38.08313316 15.5458464 51.30166912 15.17274557 65 13.3125 C65.66376648 13.22452148 66.32753296 13.13654297 67.01141357 13.04589844 C83.1682186 10.89300815 99.25303068 8.0022807 114.671875 2.6015625 C117 2 117 2 120 3 C93.80962062 12.83368437 67.04039072 17.21535455 39.0625 17.3125 C38.33788574 17.31511841 37.61327148 17.31773682 36.86669922 17.32043457 C18.58544775 17.32748908 1.63535611 15.09783416 -14 5 C-14.33 4.01 -14.66 3.02 -15 2 C-13.06524329 1.46906676 -11.12706845 0.95057683 -9.1875 0.4375 C-8.10855469 0.14746094 -7.02960938 -0.14257812 -5.91796875 -0.44140625 C-3 -1 -3 -1 0 0 Z " fill="#3CA6C6" transform="translate(190,415)"/>
<path d="M0 0 C3.70025815 0.37002581 6.52132462 1.1722283 9.75 2.9375 C13.62142704 4.98794989 17.29401658 5.81886377 21.58984375 6.5625 C24.81050428 7.14712557 27.87066499 8.04759369 31 9 C31 9.66 31 10.32 31 11 C32.37285156 10.98259766 32.37285156 10.98259766 33.7734375 10.96484375 C35.55621094 10.95130859 35.55621094 10.95130859 37.375 10.9375 C38.55835938 10.92589844 39.74171875 10.91429687 40.9609375 10.90234375 C44 11 44 11 46 12 C48.71262116 12.2322646 51.40773126 12.41936235 54.125 12.5625 C55.25615234 12.62727539 55.25615234 12.62727539 56.41015625 12.69335938 C58.27321888 12.7994832 60.13658524 12.90025001 62 13 C62 12.34 62 11.68 62 11 C62.83402344 10.89042969 63.66804688 10.78085937 64.52734375 10.66796875 C70.55721963 9.81839861 76.08009827 8.76513112 81.7890625 6.6640625 C85.76730966 5.46918261 89.86988734 5.25004857 94 5 C94 4.34 94 3.68 94 3 C96.64 2.67 99.28 2.34 102 2 C85.93034888 15.04042953 58.1240297 15.59695633 38.48681641 13.765625 C24.96328043 12.02839494 12.23076829 7.98057608 0 2 C0 1.34 0 0.68 0 0 Z " fill="#28729B" transform="translate(98,384)"/>
<path d="M0 0 C17.63729894 23.51639859 23.33986323 57.3382011 23 86 C22.67 86 22.34 86 22 86 C21.89042969 85.27296875 21.78085937 84.5459375 21.66796875 83.796875 C20.81355633 78.37864989 19.81308327 73.10819054 18.375 67.8125 C17.20548854 63.36137428 16.84297349 59.52253598 17.0234375 54.9453125 C16.98895039 52.08288209 15.95025075 49.68306093 15 47 C14.82682771 45.48203665 14.68293926 43.96055475 14.5625 42.4375 C14.1962678 38.50050388 13.06454017 36.38584588 11 33 C10.14824198 29.69737698 9.57745009 26.35970959 9 23 C8.67112179 21.3324485 8.33905085 19.66551296 8 18 C7.01 17.67 6.02 17.34 5 17 C5.33 16.34 5.66 15.68 6 15 C5.34 15 4.68 15 4 15 C4 13.35 4 11.7 4 10 C3.01 10.33 2.02 10.66 1 11 C0.67 7.37 0.34 3.74 0 0 Z " fill="#1D7099" transform="translate(424,182)"/>
<path d="M0 0 C0.66 0 1.32 0 2 0 C2 0.66 2 1.32 2 2 C2.99 2.33 3.98 2.66 5 3 C6.53515625 4.59375 6.53515625 4.59375 8.0625 6.5 C10.17721767 9.18106401 10.17721767 9.18106401 13 11 C13 11.66 13 12.32 13 13 C13.721875 13.2475 14.44375 13.495 15.1875 13.75 C18 15 18 15 20.28125 16.875 C23.16724452 19.13071986 26.01909103 20.65758248 29.3125 22.25 C30.38113281 22.77078125 31.44976562 23.2915625 32.55078125 23.828125 C33.76314453 24.40820312 33.76314453 24.40820312 35 25 C31.45774942 26.18075019 30.00293367 25.74777355 26.4375 24.8125 C25.46683594 24.57144531 24.49617188 24.33039063 23.49609375 24.08203125 C20.49787545 22.78233412 20.33067642 21.84981773 19 19 C17.68 18.67 16.36 18.34 15 18 C14.01 20.64 13.02 23.28 12 26 C11.34 25.34 10.68 24.68 10 24 C10 21.99207942 10.00411247 19.98363399 10.0625 17.9765625 C9.98661364 15.57665626 9.32645852 13.98968778 8 12 C7.34 12 6.68 12 6 12 C7.91821456 21.22147221 7.91821456 21.22147221 13 29 C12.609375 31.125 12.609375 31.125 12 33 C4.50745619 24.18524258 0.05550124 11.54425707 0 0 Z " fill="#F5FCFA" transform="translate(291,334)"/>
<path d="M0 0 C0.495 0.99 0.495 0.99 1 2 C0.67 2.66 0.34 3.32 0 4 C-0.99 4 -1.98 4 -3 4 C-3.33 4.99 -3.66 5.98 -4 7 C-6.98459129 8.95542188 -8.26414791 9 -12 9 C-12.33 9.99 -12.66 10.98 -13 12 C-15 12.66666667 -17 13.33333333 -19 14 C-19.33 14.99 -19.66 15.98 -20 17 C-21.423125 17.12375 -21.423125 17.12375 -22.875 17.25 C-26.10461791 17.65074923 -26.10461791 17.65074923 -27.375 20.0625 C-27.58125 20.701875 -27.7875 21.34125 -28 22 C-29.32 21.67 -30.64 21.34 -32 21 C-32 21.66 -32 22.32 -32 23 C-37.19230769 27.73076923 -37.19230769 27.73076923 -41 29 C-41.9590625 30.0209375 -41.9590625 30.0209375 -42.9375 31.0625 C-45 33 -45 33 -49 33 C-49 33.66 -49 34.32 -49 35 C-49.66 35 -50.32 35 -51 35 C-51 35.66 -51 36.32 -51 37 C-56.47619048 42 -56.47619048 42 -59 42 C-59.33 42.66 -59.66 43.32 -60 44 C-60.99 44 -61.98 44 -63 44 C-63 44.66 -63 45.32 -63 46 C-63.66 46 -64.32 46 -65 46 C-65 46.66 -65 47.32 -65 48 C-66.32 48 -67.64 48 -69 48 C-69.33 48.99 -69.66 49.98 -70 51 C-73.0625 52.1875 -73.0625 52.1875 -76 53 C-72.44627239 49.32100185 -68.72231402 46.02395434 -64.6875 42.875 C-64.08647461 42.40416992 -63.48544922 41.93333984 -62.86621094 41.44824219 C-56.3533498 36.40721408 -49.56360522 31.79050986 -42.73925781 27.18554688 C-40.50574594 25.6630969 -38.31680959 24.08171826 -36.125 22.5 C-29.3869076 17.76174615 -22.26781455 13.60331864 -15.22119141 9.34570312 C-11.9289542 7.35110964 -8.6512062 5.33328135 -5.375 3.3125 C-4.33085937 2.66925781 -3.28671875 2.02601562 -2.2109375 1.36328125 C-1.48132813 0.91339844 -0.75171875 0.46351562 0 0 Z M-30 22 C-28 23 -28 23 -28 23 Z " fill="#1D6F99" transform="translate(170,109)"/>
<path d="M0 0 C0.66 0 1.32 0 2 0 C1.90912109 0.71430176 1.81824219 1.42860352 1.72460938 2.16455078 C-2.84152286 38.36708757 -2.84152286 38.36708757 7 73 C7.97441815 74.02494354 8.97066932 75.03021737 10 76 C11.74428992 80.13121297 12.21266983 83.53393347 12 88 C0.41559904 77.23602403 -2.74458904 54.94723219 -3.29763794 39.97589111 C-3.39541262 36.33805388 -3.42549242 32.70150967 -3.4375 29.0625 C-3.44358276 28.36316345 -3.44966553 27.6638269 -3.45593262 26.94329834 C-3.50902109 17.61532604 -2.53288697 9.00742853 0 0 Z " fill="#1C6A94" transform="translate(36,246)"/>
<path d="M0 0 C7.76639774 6.49841444 14.47947341 13.26490552 20.5625 21.375 C21.1311377 22.12668457 21.69977539 22.87836914 22.28564453 23.65283203 C26.04762728 28.6547192 29.64753984 33.71380195 33 39 C33.64066406 39.94875 34.28132813 40.8975 34.94140625 41.875 C35.60011719 42.865 36.25882812 43.855 36.9375 44.875 C37.54464844 45.77992188 38.15179688 46.68484375 38.77734375 47.6171875 C39.18082031 48.40351563 39.58429688 49.18984375 40 50 C39.67 50.99 39.34 51.98 39 53 C37.68 53 36.36 53 35 53 C34.8453125 51.4221875 34.8453125 51.4221875 34.6875 49.8125 C34.01750713 46.09708498 33.03743581 44.10044579 31 41 C31 40.34 31 39.68 31 39 C29.68 38.67 28.36 38.34 27 38 C27 36.68 27 35.36 27 34 C26.34 34 25.68 34 25 34 C25 32.68 25 31.36 25 30 C24.401875 29.979375 23.80375 29.95875 23.1875 29.9375 C21 29 21 29 19.5625 25.625 C17.79805006 21.53147613 16.71925358 21.09804048 13 19 C12.67 18.154375 12.34 17.30875 12 16.4375 C11.21974609 13.74913894 11.21974609 13.74913894 8.4375 12.8125 C7.633125 12.544375 6.82875 12.27625 6 12 C5.67 11.34 5.34 10.68 5 10 C5.66 10 6.32 10 7 10 C6.4946875 9.44570312 5.989375 8.89140625 5.46875 8.3203125 C4.8190625 7.59585938 4.169375 6.87140625 3.5 6.125 C2.8503125 5.40570313 2.200625 4.68640625 1.53125 3.9453125 C0 2 0 2 0 0 Z " fill="#1B709A" transform="translate(384,130)"/>
<path d="M0 0 C0.639375 0.680625 1.27875 1.36125 1.9375 2.0625 C15.29754701 15.19987956 31.64321299 20.1643213 50 22 C44.55080679 27.80075406 38.57774471 33.29175673 31 36 C30.67 35.01 30.34 34.02 30 33 C31.65 33 33.3 33 35 33 C35 32.34 35 31.68 35 31 C35.99 30.67 36.98 30.34 38 30 C39.22445284 28.37051936 39.22445284 28.37051936 40.1875 26.4375 C40.785625 25.303125 41.38375 24.16875 42 23 C40.88625 23.020625 39.7725 23.04125 38.625 23.0625 C35 23 35 23 33 22 C30.63049479 21.61076473 28.2542428 21.2619422 25.875 20.9375 C23.95300781 20.67259766 23.95300781 20.67259766 21.9921875 20.40234375 C20.51105469 20.20318359 20.51105469 20.20318359 19 20 C18.67 18.68 18.34 17.36 18 16 C16.9275 15.7525 15.855 15.505 14.75 15.25 C10.80035713 13.93345238 9.69084122 13.02719637 7 10 C5.14537069 8.50016934 3.27764896 7.02137567 1.390625 5.5625 C0 4 0 4 0 0 Z " fill="#33A4C3" transform="translate(305,369)"/>
<path d="M0 0 C3.70427278 1.43573102 7.20748612 3.11969692 10.7109375 4.98046875 C11.42193604 5.35768066 12.13293457 5.73489258 12.86547852 6.12353516 C19.81864328 9.88998582 26.5551958 14.00004987 33.2734375 18.16796875 C34.3341748 18.82240967 35.39491211 19.47685059 36.48779297 20.15112305 C37.4779541 20.772854 38.46811523 21.39458496 39.48828125 22.03515625 C40.37507568 22.59058105 41.26187012 23.14600586 42.17553711 23.71826172 C44.3359375 25.29296875 44.3359375 25.29296875 46.3359375 28.29296875 C41.3859375 27.30296875 41.3859375 27.30296875 36.3359375 26.29296875 C35.8409375 24.31296875 35.8409375 24.31296875 35.3359375 22.29296875 C33.29336773 21.0131068 33.29336773 21.0131068 30.8359375 20.16796875 C26.42987096 18.48083568 26.42987096 18.48083568 25.3359375 16.29296875 C23.69230616 15.57137451 22.02543364 14.89945454 20.3359375 14.29296875 C20.3359375 13.63296875 20.3359375 12.97296875 20.3359375 12.29296875 C19.0778125 12.21046875 17.8196875 12.12796875 16.5234375 12.04296875 C12.55637066 11.55748854 12.55637066 11.55748854 10.7734375 9.41796875 C10.2990625 8.71671875 9.8246875 8.01546875 9.3359375 7.29296875 C4.07152654 4.40270391 0.29779148 3.97918696 -5.6640625 4.29296875 C-5.2890625 2.35546875 -5.2890625 2.35546875 -4.6640625 0.29296875 C-2.6640625 -0.70703125 -2.6640625 -0.70703125 0 0 Z " fill="#196B96" transform="translate(293.6640625,65.70703125)"/>
<path d="M0 0 C1.83324096 3.66648191 -0.49680961 7.67020056 -1.69140625 11.39453125 C-4.34190665 18.69725326 -7.19719719 25.68493277 -13 31 C-12.67 29.02 -12.34 27.04 -12 25 C-11.34 25 -10.68 25 -10 25 C-10 24.34 -10 23.68 -10 23 C-9.34 23 -8.68 23 -8 23 C-8 21.35 -8 19.7 -8 18 C-7.34 18 -6.68 18 -6 18 C-6.33 16.68 -6.66 15.36 -7 14 C-10.95199987 15.16763633 -13.7725527 16.46414855 -17 19 C-17.66 19 -18.32 19 -19 19 C-19.33 19.99 -19.66 20.98 -20 22 C-21.65 22.33 -23.3 22.66 -25 23 C-22.14038639 19.95589519 -19.22580257 17.37155847 -15.875 14.875 C-10.057496 10.45055767 -5.07015709 5.24074181 0 0 Z " fill="#DFF9FC" transform="translate(245,353)"/>
<path d="M0 0 C2 1 2 1 2.78125 3.046875 C6.02898527 15.26118372 7.37340954 27.14355562 7.37060547 39.73803711 C7.37498954 41.93226248 7.41149891 44.12448542 7.44921875 46.31835938 C7.51511518 54.80032382 6.61737722 61.93651281 3.95947266 70.04907227 C3.09845551 72.69719295 2.48361845 75.26150259 2 78 C1.34 78 0.68 78 0 78 C0.48445768 73.73677244 1.32720197 69.84111736 2.5234375 65.71875 C4.40947411 58.24275302 4.41771174 50.89916295 4.3125 43.25 C4.30249891 41.82006887 4.29257099 40.39013722 4.28271484 38.96020508 C4.18544432 29.51868265 3.69768593 20.30286007 2 11 C1.80921875 9.88238281 1.6184375 8.76476562 1.421875 7.61328125 C0.97496119 5.06906478 0.50451168 2.53329267 0 0 Z " fill="#C9F1F9" transform="translate(442,226)"/>
<path d="M0 0 C0.99 0.66 1.98 1.32 3 2 C-8.68988311 16.60443391 -24.72778555 27.49300178 -43 32 C-45.4375 31.625 -45.4375 31.625 -47 31 C-44 29 -44 29 -41 29 C-40.67 27.68 -40.34 26.36 -40 25 C-38.700625 25.309375 -38.700625 25.309375 -37.375 25.625 C-33.60131961 26.04429782 -31.44818459 25.52361645 -28 24 C-27.67 23.34 -27.34 22.68 -27 22 C-25.35 22 -23.7 22 -22 22 C-22 21.01 -22 20.02 -22 19 C-20.68 19 -19.36 19 -18 19 C-17.67 17.68 -17.34 16.36 -17 15 C-15.35 15 -13.7 15 -12 15 C-11.67 13.02 -11.34 11.04 -11 9 C-9.35 8.67 -7.7 8.34 -6 8 C-5.67 6.68 -5.34 5.36 -5 4 C-4.505 4.99 -4.505 4.99 -4 6 C-3.34 6 -2.68 6 -2 6 C-2 4.35 -2 2.7 -2 1 C-1.34 0.67 -0.68 0.34 0 0 Z " fill="#2DA7C7" transform="translate(423,329)"/>
<path d="M0 0 C0.99 0 1.98 0 3 0 C-2.54150317 13.42627054 -20.80364955 24.32906798 -33 31 C-33.66 31 -34.32 31 -35 31 C-35.33 30.34 -35.66 29.68 -36 29 C-38.52733235 28.34444881 -38.52733235 28.34444881 -41 28 C-41 27.34 -41 26.68 -41 26 C-37.7 26.33 -34.4 26.66 -31 27 C-30.67 26.34 -30.34 25.68 -30 25 C-28.865625 24.71125 -27.73125 24.4225 -26.5625 24.125 C-22.96421157 23.41682237 -22.96421157 23.41682237 -21.8125 21.0625 C-21.544375 20.381875 -21.27625 19.70125 -21 19 C-17.57142857 16 -17.57142857 16 -15 16 C-15.33 14.68 -15.66 13.36 -16 12 C-13.69 12 -11.38 12 -9 12 C-8.9175 11.05125 -8.835 10.1025 -8.75 9.125 C-8 6 -8 6 -6 4.75 C-5.34 4.5025 -4.68 4.255 -4 4 C-3.67 3.34 -3.34 2.68 -3 2 C-2.01 2 -1.02 2 0 2 C0 1.34 0 0.68 0 0 Z " fill="#18709D" transform="translate(242,352)"/>
<path d="M0 0 C0.33 0 0.66 0 1 0 C1.1999733 3.59951941 1.09543806 6.00651705 -1 9 C-1.78375 9.433125 -2.5675 9.86625 -3.375 10.3125 C-7.66037876 13.06738635 -9.33214471 17.19286215 -11.0625 21.875 C-11.371875 22.57625 -11.68125 23.2775 -12 24 C-12.99 24.33 -13.98 24.66 -15 25 C-15.83252347 27.64866897 -16.49089929 30.16989374 -17.0625 32.875 C-18.76226292 40.64339438 -18.76226292 40.64339438 -21 44 C-21.99 44 -22.98 44 -24 44 C-23.34127575 39.20072331 -21.43825872 35.20227214 -19.375 30.875 C-19.01599609 30.11944824 -18.65699219 29.36389648 -18.28710938 28.58544922 C-13.33971502 18.36127051 -7.05771529 8.89960684 0 0 Z " fill="#27749B" transform="translate(64,191)"/>
<path d="M0 0 C3.77512213 0.48193048 7.38758588 1.08341078 11.07421875 2.02734375 C16.36461987 3.21610062 21.47279267 3.2624136 26.875 3.1875 C28.32156982 3.17783203 28.32156982 3.17783203 29.79736328 3.16796875 C36.23101021 3.09840406 42.61621217 2.8552443 49 2 C48.01 2.66 47.02 3.32 46 4 C46.495 4.99 46.495 4.99 47 6 C46.67 6.66 46.34 7.32 46 8 C45.01 7.67 44.02 7.34 43 7 C41.13791316 6.87337952 39.27210659 6.79839561 37.40625 6.75390625 C36.2925 6.72103516 35.17875 6.68816406 34.03125 6.65429688 C31.70841165 6.59391336 29.38549284 6.53653705 27.0625 6.48242188 C19.86584095 6.26371607 13.03981186 5.52238601 6 4 C6 3.34 6 2.68 6 2 C3.03 1.505 3.03 1.505 0 1 C0 0.67 0 0.34 0 0 Z M30 7 C33 8 33 8 33 8 Z " fill="#DBF8FC" transform="translate(326,360)"/>
<path d="M0 0 C3.59916076 0.42343068 7.1728383 0.85083969 10.74023438 1.49414062 C19.64480481 3.06688107 28.3138489 3.23657527 37.3125 3.125 C38.74673844 3.11493517 40.18098383 3.1058156 41.61523438 3.09765625 C45.07697115 3.07595449 48.53843852 3.04162455 52 3 C52 3.66 52 4.32 52 5 C40.06453955 8.97848682 23.42164495 6.27325576 11 5.25 C10.11715332 5.1883667 9.23430664 5.1267334 8.32470703 5.06323242 C5.875 4.828125 5.875 4.828125 2 4 C0.7578125 1.94824219 0.7578125 1.94824219 0 0 Z " fill="#DBF4FA" transform="translate(118,394)"/>
<path d="M0 0 C0.66 0 1.32 0 2 0 C3.4375 1.93359375 3.4375 1.93359375 5 4.4375 C6.9529916 7.81006651 6.9529916 7.81006651 10 10 C10 10.66 10 11.32 10 12 C10.99 12.33 11.98 12.66 13 13 C14.17329511 14.40795413 15.34295479 15.81920178 16.48828125 17.25 C21.22016604 22.72773743 26.70599963 26.55611301 33 30 C34.67423683 31.32381517 36.34211215 32.65576661 38 34 C39.31138904 34.70885894 40.63777017 35.39456452 42 36 C42 36.99 42 37.98 42 39 C37.57695193 37.48685198 34.00033441 35.10037605 30.25 32.375 C29.32465454 31.70621826 29.32465454 31.70621826 28.38061523 31.02392578 C20.3458619 25.14401877 13.30359554 18.71721651 7 11 C6.01580078 9.79537109 6.01580078 9.79537109 5.01171875 8.56640625 C0 2.28920341 0 2.28920341 0 0 Z " fill="#236E96" transform="translate(54,345)"/>
<path d="M0 0 C3.43804294 0.30670504 6.87531287 0.6213595 10.3125 0.9375 C11.28896484 1.02451172 12.26542969 1.11152344 13.27148438 1.20117188 C14.20927734 1.28818359 15.14707031 1.37519531 16.11328125 1.46484375 C16.97735596 1.543396 17.84143066 1.62194824 18.73168945 1.70288086 C21 2 21 2 24 3 C26.13794525 3.0833804 28.27842009 3.10733747 30.41796875 3.09765625 C31.67158203 3.09443359 32.92519531 3.09121094 34.21679688 3.08789062 C35.52712891 3.07951172 36.83746094 3.07113281 38.1875 3.0625 C39.52278481 3.05748317 40.85807141 3.05292059 42.19335938 3.04882812 C45.46228473 3.03702695 48.73111991 3.02056297 52 3 C52 3.33 52 3.66 52 4 C35.79430094 7.82919471 17.71236888 7.75560037 2 2 C1.34 1.34 0.68 0.68 0 0 Z " fill="#32A8C9" transform="translate(324,358)"/>
<path d="M0 0 C0.66 0 1.32 0 2 0 C2.05389087 1.95803507 2.09274217 3.91648909 2.125 5.875 C2.14820313 6.96554687 2.17140625 8.05609375 2.1953125 9.1796875 C2 12 2 12 0 14 C-0.71927295 16.31765729 -1.3909893 18.65095874 -2 21 C-2.66 21 -3.32 21 -4 21 C-4.226875 21.680625 -4.45375 22.36125 -4.6875 23.0625 C-6.08460847 26.18936181 -7.81152985 28.6385531 -9.84765625 31.37109375 C-11.08933177 33.01176255 -11.08933177 33.01176255 -11.9375 35.125 C-13.64668129 38.14120227 -16.28524334 39.87540783 -19 42 C-19.66 41.67 -20.32 41.34 -21 41 C-20.43152344 40.41734375 -19.86304688 39.8346875 -19.27734375 39.234375 C-8.90576578 28.22214864 -1.15713564 15.33204729 0 0 Z " fill="#33A6C8" transform="translate(245,352)"/>
<path d="M0 0 C0 0.66 0 1.32 0 2 C-0.99 2 -1.98 2 -3 2 C-3 2.66 -3 3.32 -3 4 C-3.78375 4.0825 -4.5675 4.165 -5.375 4.25 C-6.674375 4.62125 -6.674375 4.62125 -8 5 C-8.42345703 5.9590625 -8.42345703 5.9590625 -8.85546875 6.9375 C-10 9 -10 9 -12.27734375 10.046875 C-13.15519531 10.27890625 -14.03304687 10.5109375 -14.9375 10.75 C-15.81277344 10.99234375 -16.68804687 11.2346875 -17.58984375 11.484375 C-20 12 -20 12 -23 12 C-23 12.66 -23 13.32 -23 14 C-27.4399676 16.1543038 -31.47418774 16.41745846 -36.3125 16.625 C-37.42334961 16.68300781 -37.42334961 16.68300781 -38.55664062 16.7421875 C-40.37071309 16.83581705 -42.18532116 16.91896851 -44 17 C-40.94560484 14.96373656 -38.37768781 14.27985393 -34.84179688 13.45239258 C-24.59502969 11.05397567 -9.384535 0 0 0 Z " fill="#CBEBF4" transform="translate(214,380)"/>
<path d="M0 0 C7.11921428 4.48246825 13.5700996 9.58534703 20 15 C21.11568359 15.928125 21.11568359 15.928125 22.25390625 16.875 C23.85854665 18.22354628 25.43338873 19.60745665 27 21 C27 21.33 27 21.66 27 22 C25.02 22 23.04 22 21 22 C20.938125 21.38125 20.87625 20.7625 20.8125 20.125 C20.19124685 17.7498001 20.19124685 17.7498001 17.625 16.9375 C16.75875 16.628125 15.8925 16.31875 15 16 C13.375 14.5625 13.375 14.5625 12 13 C11.1646875 12.2265625 11.1646875 12.2265625 10.3125 11.4375 C9 10 9 10 9 8 C7.35 8 5.7 8 4 8 C3.34 6.35 2.68 4.7 2 3 C1.34 3 0.68 3 0 3 C0 2.01 0 1.02 0 0 Z " fill="#1C6F9C" transform="translate(342,94)"/>
<path d="M0 0 C-10.69461366 8.71412965 -26.7304488 10.57786755 -40 10 C-36.75670368 7.83780245 -35.58357767 7.73802266 -31.8125 7.5625 C-27.41971709 7.24543562 -24.07674016 6.41173437 -20.05859375 4.69921875 C-16.17104869 3.37878124 -12.07577295 3.24220782 -8 3 C-8 2.34 -8 1.68 -8 1 C-5.07175348 0.02391783 -3.04386724 -0.08226668 0 0 Z " fill="#106B9C" transform="translate(200,386)"/>
<path d="M0 0 C0.763125 0.061875 1.52625 0.12375 2.3125 0.1875 C-1.23549746 4.08660137 -5.35179646 6.87490376 -9.6875 9.8125 C-10.3990625 10.30234375 -11.110625 10.7921875 -11.84375 11.296875 C-15.05398409 13.48893783 -18.17583219 15.50450212 -21.6875 17.1875 C-22.28482819 14.42485711 -22.6875 12.02717231 -22.6875 9.1875 C-18.97150809 8.98663557 -17.91541555 9.0355563 -14.6875 11.1875 C-14.6875 10.5275 -14.6875 9.8675 -14.6875 9.1875 C-12.82421875 7.78515625 -12.82421875 7.78515625 -10.375 6.25 C-7.01193443 4.13616384 -7.01193443 4.13616384 -4.0625 1.5078125 C-2.6875 0.1875 -2.6875 0.1875 0 0 Z " fill="#E8F7FB" transform="translate(126.6875,134.8125)"/>
<path d="M0 0 C1.8871875 0.0309375 1.8871875 0.0309375 3.8125 0.0625 C3.8125 0.3925 3.8125 0.7225 3.8125 1.0625 C1.1725 1.7225 -1.4675 2.3825 -4.1875 3.0625 C-1.84843307 7.74063386 5.49091197 9.5962388 10.15625 11.2421875 C15.35877062 12.87692448 20.41283578 14.25416703 25.8125 15.0625 C25.8125 15.3925 25.8125 15.7225 25.8125 16.0625 C23.52089681 16.08942484 21.22920454 16.10886124 18.9375 16.125 C17.66132813 16.13660156 16.38515625 16.14820313 15.0703125 16.16015625 C11.8125 16.0625 11.8125 16.0625 9.8125 15.0625 C9.8125 14.4025 9.8125 13.7425 9.8125 13.0625 C8.8225 12.794375 7.8325 12.52625 6.8125 12.25 C2.71637216 11.085661 -1.21593633 9.59538422 -5.1875 8.0625 C-5.1875 7.4025 -5.1875 6.7425 -5.1875 6.0625 C-5.8475 6.0625 -6.5075 6.0625 -7.1875 6.0625 C-7.1875 4.4125 -7.1875 2.7625 -7.1875 1.0625 C-4.43671116 0.14557039 -2.82801087 -0.04636083 0 0 Z " fill="#D4F7FB" transform="translate(180.1875,414.9375)"/>
<path d="M0 0 C0 4.31618166 -2.13270348 5.92789659 -5 9 C-5.66 9 -6.32 9 -7 9 C-7.268125 9.5775 -7.53625 10.155 -7.8125 10.75 C-9.76943809 14.4578827 -10.92938213 16.64312738 -15 18 C-16.20882096 20.00016466 -16.20882096 20.00016466 -17 22 C-18.32 21.67 -19.64 21.34 -21 21 C-18.63094737 18.43194695 -16.25370494 15.87161234 -13.875 13.3125 C-13.20984375 12.59126953 -12.5446875 11.87003906 -11.859375 11.12695312 C-8.10587615 7.09746171 -4.32282641 3.41382085 0 0 Z " fill="#1F6F9B" transform="translate(86,169)"/>
<path d="M0 0 C0.99 0.495 0.99 0.495 2 1 C3.99663435 7.70474746 4.19952269 14.7994271 4.25 21.75 C4.25918457 22.44609375 4.26836914 23.1421875 4.27783203 23.859375 C4.24827154 28.85391606 3.35781614 33.19376192 2 38 C1.67 38 1.34 38 1 38 C1.00523682 37.16863525 1.01047363 36.33727051 1.01586914 35.48071289 C1.03305289 32.35522728 1.04551856 29.22976599 1.05493164 26.10424805 C1.06235104 24.10268542 1.07506659 22.10114467 1.08789062 20.09960938 C1.10499609 13.30874075 0.93798004 6.72834499 0 0 Z " fill="#20A2D1" transform="translate(443,255)"/>
<path d="M0 0 C0 3 0 3 -1.75 5.25 C-5.81162081 9.09971016 -13.30930629 15 -19 15 C-19 15.66 -19 16.32 -19 17 C-23.92984325 19.03993514 -27.57960425 20.40652968 -33 20 C-30.15584037 18.10389358 -27.6727987 17.03569739 -24.5 15.8125 C-15.23658601 12.00408312 -7.3832891 6.72699674 0 0 Z " fill="#3FABC3" transform="translate(223,394)"/>
<path d="M0 0 C0.33 0 0.66 0 1 0 C1.185625 1.7015625 1.185625 1.7015625 1.375 3.4375 C1.684375 5.2009375 1.684375 5.2009375 2 7 C2.66 7.33 3.32 7.66 4 8 C5.3692168 15.94145743 5.09524543 23.96763515 5 32 C4.67 32 4.34 32 4 32 C3.89042969 31.27296875 3.78085937 30.5459375 3.66796875 29.796875 C2.80840703 24.34599579 1.79150427 19.06898785 0.3125 13.75 C-1.01297198 8.71320646 -1.0740529 5.077341 0 0 Z " fill="#1472A0" transform="translate(442,236)"/>
<path d="M0 0 C1.32 0.66 2.64 1.32 4 2 C3.01 2.33 2.02 2.66 1 3 C-0.00642948 4.32848691 -1.00692179 5.66150329 -2 7 C-2.66 7 -3.32 7 -4 7 C-4 7.66 -4 8.32 -4 9 C-5.32 9 -6.64 9 -8 9 C-8 9.66 -8 10.32 -8 11 C-12.38461538 14 -12.38461538 14 -15 14 C-15.33 14.99 -15.66 15.98 -16 17 C-18.0625 17.6875 -18.0625 17.6875 -20 18 C-20 18.66 -20 19.32 -20 20 C-20.99 19.67 -21.98 19.34 -23 19 C-20.21394107 16.75846492 -17.41343919 14.53769075 -14.58984375 12.34375 C-13.99236328 11.87839844 -13.39488281 11.41304687 -12.77929688 10.93359375 C-11.54899833 9.97597007 -10.31721878 9.02024614 -9.08398438 8.06640625 C-5.84956871 5.5418137 -2.8274044 2.98957473 0 0 Z " fill="#247098" transform="translate(243,59)"/>
<path d="M0 0 C0.66 0 1.32 0 2 0 C2 0.66 2 1.32 2 2 C2.99 2.33 3.98 2.66 5 3 C4.01 3.495 4.01 3.495 3 4 C3.48024193 8.89846764 4.46979123 11.85045762 7 16 C7.34678569 17.32482969 7.65689129 18.65959231 7.9375 20 C8.77672469 23.84885808 10.5316774 25.9358754 13 29 C12.61328125 31.140625 12.61328125 31.140625 12 33 C4.50745619 24.18524258 0.05550124 11.54425707 0 0 Z " fill="#C9F8FD" transform="translate(291,334)"/>
<path d="M0 0 C2.07039926 3.1055989 2.8539026 5.55537852 3.875 9.125 C5.34302833 14.08305794 7.05576753 18.6693632 9.36328125 23.29296875 C9.57339844 23.85628906 9.78351562 24.41960937 10 25 C9.67 25.66 9.34 26.32 9 27 C8.34 27 7.68 27 7 27 C4.5705484 23.3558226 4.83820425 21.28758728 5 17 C4.01 16.67 3.02 16.34 2 16 C-0.90458916 10.08708636 -1.26105628 6.41992286 0 0 Z " fill="#D0F1F8" transform="translate(35,304)"/>
<path d="M0 0 C6.18160604 0.53753096 11.326858 2.54582388 17 5 C13.0156558 6.22793367 10.91472728 5.38646591 7 4 C5.68 4 4.36 4 3 4 C2.67 5.65 2.34 7.3 2 9 C0.35 8.01 -1.3 7.02 -3 6 C-3 6.66 -3 7.32 -3 8 C-4.65 8.66 -6.3 9.32 -8 10 C-7.59007812 9.52949219 -7.18015625 9.05898438 -6.7578125 8.57421875 C-6.21898437 7.95160156 -5.68015625 7.32898437 -5.125 6.6875 C-4.59132812 6.07261719 -4.05765625 5.45773438 -3.5078125 4.82421875 C-1.8359553 2.86501788 -1.8359553 2.86501788 0 0 Z " fill="#156E9E" transform="translate(253,49)"/>
<path d="M0 0 C0.99 0.33 1.98 0.66 3 1 C3 1.66 3 2.32 3 3 C4.0828125 3.37125 4.0828125 3.37125 5.1875 3.75 C8 5 8 5 10.28125 6.875 C13.16724452 9.13071986 16.01909103 10.65758248 19.3125 12.25 C20.38113281 12.77078125 21.44976562 13.2915625 22.55078125 13.828125 C23.76314453 14.40820312 23.76314453 14.40820312 25 15 C21.45774942 16.18075019 20.00293367 15.74777355 16.4375 14.8125 C15.46683594 14.57144531 14.49617188 14.33039063 13.49609375 14.08203125 C10.51987395 12.79187024 10.25035911 11.87524976 9 9 C8.01 8.67 7.02 8.34 6 8 C6 7.34 6 6.68 6 6 C4.68 5.67 3.36 5.34 2 5 C2 4.01 2 3.02 2 2 C1.34 2 0.68 2 0 2 C0 1.34 0 0.68 0 0 Z " fill="#D8FAFE" transform="translate(301,344)"/>
<path d="M0 0 C0.66 0 1.32 0 2 0 C1.3288845 9.61932224 -2.92031538 18.9101319 -8 27 C-8.33 27 -8.66 27 -9 27 C-9 25.35 -9 23.7 -9 22 C-8.34 22 -7.68 22 -7 22 C-6.87882812 21.36191406 -6.75765625 20.72382813 -6.6328125 20.06640625 C-6.46523438 19.24011719 -6.29765625 18.41382813 -6.125 17.5625 C-5.88136719 16.32693359 -5.88136719 16.32693359 -5.6328125 15.06640625 C-5.42398437 14.38449219 -5.21515625 13.70257813 -5 13 C-4.34 12.67 -3.68 12.34 -3 12 C-2.60794432 9.70895731 -2.60794432 9.70895731 -2.5 7.0625 C-2.22137405 2.22137405 -2.22137405 2.22137405 0 0 Z " fill="#2AA2C5" transform="translate(442,293)"/>
<path d="M0 0 C1.32 0.66 2.64 1.32 4 2 C1.44060561 3.63007257 -1.12227323 5.25415176 -3.6875 6.875 C-4.40873047 7.33519531 -5.12996094 7.79539062 -5.87304688 8.26953125 C-9.49198487 10.54995793 -12.92841547 12.60265146 -17 14 C-17 13.34 -17 12.68 -17 12 C-16.01 11.67 -15.02 11.34 -14 11 C-13.71125 10.20207031 -13.4225 9.40414062 -13.125 8.58203125 C-12 6 -12 6 -9.6875 4.63671875 C-8.800625 4.32347656 -7.91375 4.01023437 -7 3.6875 C-6.113125 3.36136719 -5.22625 3.03523438 -4.3125 2.69921875 C-2 2 -2 2 0 2 C0 1.34 0 0.68 0 0 Z " fill="#D7F4FA" transform="translate(172,104)"/>
<path d="M0 0 C0.969375 0.86625 1.93875 1.7325 2.9375 2.625 C7.03550142 6.15196844 11.45085539 9.09102317 16 12 C15.67 12.66 15.34 13.32 15 14 C13.02 14 11.04 14 9 14 C8.896875 13.360625 8.79375 12.72125 8.6875 12.0625 C8.460625 11.381875 8.23375 10.70125 8 10 C7.01 9.67 6.02 9.34 5 9 C5 8.34 5 7.68 5 7 C4.01 7.33 3.02 7.66 2 8 C-0.1519437 4.77208445 -0.20086443 3.71599191 0 0 Z " fill="#E1F3F7" transform="translate(72,367)"/>
<path d="M0 0 C1.98 0.495 1.98 0.495 4 1 C4 1.66 4 2.32 4 3 C4.99 2.67 5.98 2.34 7 2 C7.061875 2.61875 7.12375 3.2375 7.1875 3.875 C7.828919 6.27761141 7.828919 6.27761141 10.5625 7.25 C11.366875 7.4975 12.17125 7.745 13 8 C13 8.99 13 9.98 13 11 C13.66 11 14.32 11 15 11 C15 11.66 15 12.32 15 13 C16.32 13.33 17.64 13.66 19 14 C18.67 14.99 18.34 15.98 18 17 C17.21496094 16.33613281 16.42992187 15.67226562 15.62109375 14.98828125 C10.21739384 10.43933591 4.84247498 5.98350567 -1 2 C-0.67 1.34 -0.34 0.68 0 0 Z " fill="#D6F4FA" transform="translate(349,97)"/>
<path d="M0 0 C2.61601935 2.61601935 3.1119485 5.04592087 4.25 8.5625 C6.31978145 14.71556151 9.03937147 19.85526603 13 25 C9.15625 23.328125 9.15625 23.328125 7.75 20.375 C7.5025 19.59125 7.255 18.8075 7 18 C6.34 18 5.68 18 5 18 C4.731875 17.236875 4.46375 16.47375 4.1875 15.6875 C3.2324592 13.00512902 3.2324592 13.00512902 1.4375 11.65625 C-0.56225098 9.35218908 -0.30433026 7.81114336 -0.1875 4.8125 C-0.16042969 3.91144531 -0.13335937 3.01039063 -0.10546875 2.08203125 C-0.07066406 1.39496094 -0.03585937 0.70789063 0 0 Z " fill="#3BA4C8" transform="translate(292,344)"/>
<path d="M0 0 C0.66 0 1.32 0 2 0 C2.33 1.65 2.66 3.3 3 5 C3.99 5.33 4.98 5.66 6 6 C6.625 7.75 6.625 7.75 7 10 C7.63560879 13.38273152 8.46166919 16.51006934 9.625 19.75 C10.74117617 22.95269646 11.33204135 25.56890601 11 29 C8.83260767 25.7489115 7.78316295 22.55709693 6.625 18.875 C4.93764569 13.63505523 3.09346706 8.60502057 0.69921875 3.63671875 C0 2 0 2 0 0 Z " fill="#D7F5FB" transform="translate(430,192)"/>
<path d="M0 0 C5.61 0.33 11.22 0.66 17 1 C16 6 16 6 13.6875 7.875 C10.81325108 9.07817396 9.82652171 9.15154588 7 8 C7.639375 7.731875 8.27875 7.46375 8.9375 7.1875 C11.33131686 6.11332248 11.33131686 6.11332248 12 3 C6.06 2.01 6.06 2.01 0 1 C0 0.67 0 0.34 0 0 Z " fill="#C1EDF3" transform="translate(341,389)"/>
<path d="M0 0 C0.763125 0.061875 1.52625 0.12375 2.3125 0.1875 C-1.16450409 4.01972271 -5.51271697 5.75364082 -10.125 7.9375 C-10.98416016 8.36160156 -11.84332031 8.78570312 -12.72851562 9.22265625 C-13.9747168 9.81626953 -13.9747168 9.81626953 -15.24609375 10.421875 C-16.38002563 10.96666504 -16.38002563 10.96666504 -17.53686523 11.52246094 C-20.01299477 12.28815249 -21.27643604 12.04188128 -23.6875 11.1875 C-22.0375 10.8575 -20.3875 10.5275 -18.6875 10.1875 C-18.6875 9.5275 -18.6875 8.8675 -18.6875 8.1875 C-17.78386719 7.86136719 -16.88023437 7.53523438 -15.94921875 7.19921875 C-14.76972656 6.76222656 -13.59023438 6.32523437 -12.375 5.875 C-11.20324219 5.44574219 -10.03148437 5.01648438 -8.82421875 4.57421875 C-5.32219204 3.02600022 -3.72350323 0.2597793 0 0 Z " fill="#39A3C5" transform="translate(333.6875,404.8125)"/>
<path d="M0 0 C0.99 0.33 1.98 0.66 3 1 C2.48614746 1.67204468 2.48614746 1.67204468 1.96191406 2.35766602 C0.38691513 4.42265871 -1.18155896 6.49252258 -2.75 8.5625 C-3.55824219 9.61920898 -3.55824219 9.61920898 -4.3828125 10.69726562 C-7.62104728 14.98200311 -10.44248912 19.27605394 -13 24 C-13.33 22.68 -13.66 21.36 -14 20 C-13.34 20 -12.68 20 -12 20 C-11.9175 19.05125 -11.835 18.1025 -11.75 17.125 C-11.5025 16.09375 -11.255 15.0625 -11 14 C-9.68352881 13.30062468 -8.34977849 12.63270867 -7 12 C-6.65846063 10.33499557 -6.32550502 8.66821323 -6 7 C-4.70264493 5.95374591 -3.36733028 4.95298777 -2 4 C-0.7483533 1.91665365 -0.7483533 1.91665365 0 0 Z " fill="#D6F0FA" transform="translate(64,188)"/>
<path d="M0 0 C0.33 0.66 0.66 1.32 1 2 C0.06553465 4.03144641 -0.93224776 6.03533587 -2 8 C-2.66 8 -3.32 8 -4 8 C-4.2475 8.598125 -4.495 9.19625 -4.75 9.8125 C-6.20864875 12.36513531 -7.43626682 13.56732558 -10 15 C-12.1328125 14.57421875 -12.1328125 14.57421875 -14 14 C-13.40832031 13.49210937 -12.81664062 12.98421875 -12.20703125 12.4609375 C-7.71934051 8.55159516 -3.64708733 4.70591913 0 0 Z " fill="#DAF8FB" transform="translate(426,330)"/>
<path d="M0 0 C1.0546875 1.828125 1.0546875 1.828125 2 4 C1.125 6.75 1.125 6.75 0 9 C-0.66 9 -1.32 9 -2 9 C-2.20625 9.556875 -2.4125 10.11375 -2.625 10.6875 C-4.55000774 13.92501302 -7.03850902 15.68231141 -10 18 C-8.47146065 13.72813475 -6.28490519 10.00673137 -3.875 6.1875 C-3.50246094 5.59001953 -3.12992187 4.99253906 -2.74609375 4.37695312 C-1.8342952 2.91573749 -0.91764024 1.45755415 0 0 Z " fill="#1AA1D8" transform="translate(303,267)"/>
<path d="M0 0 C7.26652117 -0.5565846 13.64563192 0.16170494 20 4 C20.33 4.99 20.66 5.98 21 7 C19.41531323 6.54636829 17.83230076 6.08688548 16.25 5.625 C15.36828125 5.36976562 14.4865625 5.11453125 13.578125 4.8515625 C11.23660106 4.07815005 9.19716207 3.10092343 7 2 C4.45769153 1.58320703 4.45769153 1.58320703 2 2 C0.18523997 3.39585785 0.18523997 3.39585785 -1 5 C-1 2 -1 2 0 0 Z " fill="#C8EAF2" transform="translate(251,48)"/>
<path d="M0 0 C3.67033927 3.27708863 5.69281189 6.71522208 8 11 C7.443125 10.814375 6.88625 10.62875 6.3125 10.4375 C3.600867 9.92448835 1.65628961 10.3359276 -1 11 C-1 9.68 -1 8.36 -1 7 C-0.34 7 0.32 7 1 7 C0.34 5.02 -0.32 3.04 -1 1 C-0.67 0.67 -0.34 0.34 0 0 Z " fill="#E1F4F7" transform="translate(50,341)"/>
<path d="M0 0 C-3.3116319 3.71304183 -6.9477304 5.88899839 -11.25 8.25 C-12.22453125 8.79527344 -12.22453125 8.79527344 -13.21875 9.3515625 C-14.80918426 10.24033459 -16.40414448 11.12099936 -18 12 C-16.26525336 8.21509823 -14.39202699 6.46692872 -11 4 C-10.01 3.2575 -9.02 2.515 -8 1.75 C-4.92102635 -0.04606796 -3.47859716 -0.40924672 0 0 Z " fill="#D5F3F9" transform="translate(216,80)"/>
<path d="M0 0 C0.66 0 1.32 0 2 0 C1.01 8.58 0.02 17.16 -1 26 C-1.33 26 -1.66 26 -2 26 C-4.28683682 16.85265271 -2.28998155 8.94183271 0 0 Z " fill="#2C769D" transform="translate(36,246)"/>
<path d="M0 0 C2.14226357 3.21339535 2.77027449 5.56983832 3.625 9.3125 C4.01558594 10.97732422 4.01558594 10.97732422 4.4140625 12.67578125 C4.98235175 15.89987558 5.25426054 18.73698975 5 22 C4.34 22.66 3.68 23.32 3 24 C2.92652344 23.06027344 2.92652344 23.06027344 2.8515625 22.1015625 C2.77679688 21.28429687 2.70203125 20.46703125 2.625 19.625 C2.55539062 18.81289062 2.48578125 18.00078125 2.4140625 17.1640625 C2.17107412 14.79665809 2.17107412 14.79665809 0 13 C-0.1953125 9.9609375 -0.1953125 9.9609375 -0.125 6.375 C-0.10695313 5.18648437 -0.08890625 3.99796875 -0.0703125 2.7734375 C-0.04710937 1.85820312 -0.02390625 0.94296875 0 0 Z " fill="#2C77A2" transform="translate(440,221)"/>
<path d="M0 0 C3.16658663 -0.05880804 6.33302993 -0.09386406 9.5 -0.125 C10.386875 -0.14175781 11.27375 -0.15851563 12.1875 -0.17578125 C17.82323788 -0.2172205 22.59300232 0.39558714 28 2 C28 2.33 28 2.66 28 3 C22.72 3 17.44 3 12 3 C12 2.67 12 2.34 12 2 C8.04 1.67 4.08 1.34 0 1 C0 0.67 0 0.34 0 0 Z " fill="#1597CF" transform="translate(372,209)"/>
<path d="M0 0 C6.51819877 1.89536276 12.17814801 4.5178994 18 8 C18 8.33 18 8.66 18 9 C13.00095506 8.50009551 9.37064146 7.47036256 5 5 C4.05125 4.484375 3.1025 3.96875 2.125 3.4375 C1.073125 2.7259375 1.073125 2.7259375 0 2 C0 1.34 0 0.68 0 0 Z " fill="#196D97" transform="translate(272,56)"/>
<path d="M0 0 C4.08378283 0.74250597 8.01939223 1.82923301 12 3 C12 3.66 12 4.32 12 5 C16.29 5 20.58 5 25 5 C25 5.33 25 5.66 25 6 C22.4580411 6.05434116 19.91726318 6.0938339 17.375 6.125 C16.66214844 6.14175781 15.94929687 6.15851563 15.21484375 6.17578125 C9.35540925 6.22953753 4.97017505 5.31345004 0 2 C0 1.34 0 0.68 0 0 Z " fill="#136D9C" transform="translate(117,390)"/>
<path d="M0 0 C-6.1662793 5.0543273 -14.1459761 7.30186454 -22 8 C-17.4407093 4.96047287 -13.52837581 3 -8 3 C-8 2.34 -8 1.68 -8 1 C-5.07175348 0.02391783 -3.04386724 -0.08226668 0 0 Z " fill="#1D6C97" transform="translate(200,386)"/>
<path d="M0 0 C3.82791577 0.53165497 6.15961769 1.34897651 9 4 C12 8.39285714 12 8.39285714 12 11 C12.66 11.33 13.32 11.66 14 12 C13.01 12 12.02 12 11 12 C9.77560232 10.57705134 8.55826157 9.14622373 7.40625 7.6640625 C5.95551982 5.94736511 4.43471038 4.59680649 2.6875 3.1875 C1.800625 2.465625 0.91375 1.74375 0 1 C0 0.67 0 0.34 0 0 Z " fill="#D1F0F7" transform="translate(375,120)"/>
<path d="M0 0 C7.02765937 0.82678345 14.00998353 1.90248217 21 3 C21 3.33 21 3.66 21 4 C14.73 4 8.46 4 2 4 C1.34 2.68 0.68 1.36 0 0 Z " fill="#CAEEF7" transform="translate(118,394)"/>
<path d="M0 0 C1.33333333 0.33333333 2.66666667 0.66666667 4 1 C4.70640625 1.17660156 5.4128125 1.35320312 6.140625 1.53515625 C8.09375 2.0234375 10.046875 2.51171875 12 3 C12 3.66 12 4.32 12 5 C13.32 5 14.64 5 16 5 C16 5.66 16 6.32 16 7 C9.81839396 6.46246904 4.673142 4.45417612 -1 2 C-0.67 1.34 -0.34 0.68 0 0 Z " fill="#CCF6FA" transform="translate(324,382)"/>
<path d="M0 0 C2.3125 -0.1875 2.3125 -0.1875 5 0 C6.02196992 0.97753644 7.01979625 1.9805881 8 3 C9.99172182 3.69100553 11.99161804 4.35902703 14 5 C14.66 5.66 15.32 6.32 16 7 C15.67 7.99 15.34 8.98 15 10 C12.49732313 8.52520827 9.99783579 7.04544936 7.5 5.5625 C6.78457031 5.14162109 6.06914062 4.72074219 5.33203125 4.28710938 C3.53787459 3.21915898 1.76678262 2.11265239 0 1 C0 0.67 0 0.34 0 0 Z " fill="#D9F3FA" transform="translate(320,80)"/>
<path d="M0 0 C1.65 0 3.3 0 5 0 C2.03352255 3.19249477 -1.04963636 5.4592987 -4.75 7.75 C-5.73484375 8.36359375 -6.7196875 8.9771875 -7.734375 9.609375 C-8.48203125 10.06828125 -9.2296875 10.5271875 -10 11 C-9.63641494 8.32992218 -9.35223126 7.27480111 -7.1875 5.5859375 C-6.465625 5.18632812 -5.74375 4.78671875 -5 4.375 C-1.90833391 2.76772106 -1.90833391 2.76772106 0 0 Z " fill="#D0EEF7" transform="translate(124,135)"/>
<path d="M0 0 C0.33 0.99 0.66 1.98 1 3 C-0.1446875 3.6496875 -0.1446875 3.6496875 -1.3125 4.3125 C-3.95882246 5.78490821 -3.95882246 5.78490821 -5.375 7.625 C-7.93799788 9.79369051 -10.74577037 9.6929972 -14 10 C-9.57557408 6.28919117 -4.82596069 3.15422267 0 0 Z " fill="#C8F7FC" transform="translate(347,398)"/>
<path d="M0 0 C0.66 0 1.32 0 2 0 C4.03993514 4.92984325 5.40652968 8.57960425 5 14 C0.12911247 9.35051645 0.12911247 9.35051645 -0.1953125 5.95703125 C-0.13020833 3.97135417 -0.06510417 1.98567708 0 0 Z " fill="#0F6D9C" transform="translate(43,320)"/>
<path d="M0 0 C4.67692308 1.47692308 4.67692308 1.47692308 6.3125 4.125 C6.539375 4.74375 6.76625 5.3625 7 6 C6.01 6.33 5.02 6.66 4 7 C4 6.34 4 5.68 4 5 C1.03 5 -1.94 5 -5 5 C-5 4.34 -5 3.68 -5 3 C-4.360625 2.87625 -3.72125 2.7525 -3.0625 2.625 C-2.0415625 2.315625 -2.0415625 2.315625 -1 2 C-0.67 1.34 -0.34 0.68 0 0 Z " fill="#1771A1" transform="translate(376,123)"/>
<path d="M0 0 C0.99 0 1.98 0 3 0 C3 0.66 3 1.32 3 2 C3.639375 2.2475 4.27875 2.495 4.9375 2.75 C7.544301 4.32987939 7.29195078 5.16780311 8 8 C8.639375 8.28875 9.27875 8.5775 9.9375 8.875 C12 10 12 10 13.25 13.125 C13.4975 14.07375 13.745 15.0225 14 16 C9.08419924 11.24277346 4.43022305 6.21202712 0 1 C0 0.67 0 0.34 0 0 Z " fill="#D0F4FB" transform="translate(391,136)"/>
<path d="M0 0 C0.99 0.33 1.98 0.66 3 1 C1.68 3.31 0.36 5.62 -1 8 C-1.66 8 -2.32 8 -3 8 C-3 8.66 -3 9.32 -3 10 C-3.66 10 -4.32 10 -5 10 C-5.33 10.66 -5.66 11.32 -6 12 C-6.33 11.34 -6.66 10.68 -7 10 C-3.535 5.05 -3.535 5.05 0 0 Z " fill="#18A0D5" transform="translate(319,244)"/>
<path d="M0 0 C0.66 0 1.32 0 2 0 C0.50610707 3.83658866 -1.63623019 5.46185426 -5 7.75 C-6.3303125 8.67039062 -6.3303125 8.67039062 -7.6875 9.609375 C-10 11 -10 11 -12 11 C-12.33 10.01 -12.66 9.02 -13 8 C-11.35 8 -9.7 8 -8 8 C-8 7.34 -8 6.68 -8 6 C-7.01 5.67 -6.02 5.34 -5 5 C-4.34 4.01 -3.68 3.02 -3 2 C-2.34 2.33 -1.68 2.66 -1 3 C-0.67 2.01 -0.34 1.02 0 0 Z " fill="#36A5C2" transform="translate(348,394)"/>
<path d="M0 0 C0.33 0 0.66 0 1 0 C1.05455124 2.66694948 1.09393392 5.33275498 1.125 8 C1.14175781 8.74378906 1.15851563 9.48757813 1.17578125 10.25390625 C1.22144715 15.50548443 0.45712451 19.9516946 -1 25 C-1.33 25 -1.66 25 -2 25 C-2.02688151 23.35425434 -2.04634123 21.70838587 -2.0625 20.0625 C-2.07410156 19.14597656 -2.08570313 18.22945313 -2.09765625 17.28515625 C-2 15 -2 15 -1 14 C-0.76472227 11.65012738 -0.58613583 9.29443961 -0.4375 6.9375 C-0.35371094 5.64714844 -0.26992188 4.35679687 -0.18359375 3.02734375 C-0.12300781 2.02832031 -0.06242187 1.02929688 0 0 Z " fill="#37A1C2" transform="translate(446,268)"/>
<path d="M0 0 C0.99 0.495 0.99 0.495 2 1 C2.4140625 3.06640625 2.4140625 3.06640625 2.625 5.5625 C2.69976562 6.38878906 2.77453125 7.21507812 2.8515625 8.06640625 C2.92503906 9.02353516 2.92503906 9.02353516 3 10 C3.66 10 4.32 10 5 10 C5.33 13.96 5.66 17.92 6 22 C2.67363723 15.34727445 0 7.5435773 0 0 Z " fill="#E9FDFE" transform="translate(440,214)"/>
<path d="M0 0 C4.4785979 -0.17563129 8.02584132 -0.22085338 12 2 C12.33 2.99 12.66 3.98 13 5 C10 6 10 6 7.51953125 5.00390625 C6.62621094 4.52824219 5.73289062 4.05257812 4.8125 3.5625 C3.91144531 3.08941406 3.01039063 2.61632813 2.08203125 2.12890625 C1.39496094 1.75636719 0.70789063 1.38382813 0 1 C0 0.67 0 0.34 0 0 Z " fill="#D1F0F9" transform="translate(281,59)"/>
<path d="M0 0 C6.78661213 0.78914095 13.36149367 2.41274811 20 4 C20 4.33 20 4.66 20 5 C18.22925083 5.02705729 16.45838289 5.04642195 14.6875 5.0625 C13.70136719 5.07410156 12.71523438 5.08570313 11.69921875 5.09765625 C9 5 9 5 6 4 C6 3.34 6 2.68 6 2 C3.03 1.505 3.03 1.505 0 1 C0 0.67 0 0.34 0 0 Z " fill="#D7FBFE" transform="translate(326,360)"/>
<path d="M0 0 C2.875 0.25 2.875 0.25 6 1 C7.375 3.0625 7.375 3.0625 8 5 C9.32 5 10.64 5 12 5 C12 5.66 12 6.32 12 7 C12.99 7.33 13.98 7.66 15 8 C14.67 8.66 14.34 9.32 14 10 C4.08805031 3.86163522 4.08805031 3.86163522 0 1 C0 0.67 0 0.34 0 0 Z " fill="#3CA7C6" transform="translate(304,346)"/>
<path d="M0 0 C0.66 0.66 1.32 1.32 2 2 C1.21625 2.433125 0.4325 2.86625 -0.375 3.3125 C-3.21698375 4.89220247 -3.21698375 4.89220247 -5 8 C-8.625 8.1875 -8.625 8.1875 -12 8 C-8.2064129 4.78119883 -4.34170523 2.3836813 0 0 Z " fill="#23709A" transform="translate(183,101)"/>
<path d="M0 0 C0.33 0.99 0.66 1.98 1 3 C-2.19990508 5.74277578 -5.00499382 7.6302836 -9 9 C-9.66 8.34 -10.32 7.68 -11 7 C-7.37 4.69 -3.74 2.38 0 0 Z " fill="#20709A" transform="translate(219,78)"/>
<path d="M0 0 C0 0.66 0 1.32 0 2 C-1.65 2 -3.3 2 -5 2 C-5 2.66 -5 3.32 -5 4 C-9.62 4 -14.24 4 -19 4 C-19 3.67 -19 3.34 -19 3 C-16.58424393 2.49521515 -14.16755639 1.99602358 -11.75 1.5 C-11.06808594 1.35691406 -10.38617188 1.21382813 -9.68359375 1.06640625 C-6.35366879 0.38748951 -3.41667449 0 0 0 Z " fill="#C6F5FB" transform="translate(288,425)"/>
<path d="M0 0 C0 3 0 3 -2.125 5.4375 C-9.48780488 12 -9.48780488 12 -13 12 C-11.64713154 7.94139463 -9.56634263 7.28784244 -6 5 C-3.95281815 3.3825877 -1.98157808 1.69849549 0 0 Z " fill="#39A2BE" transform="translate(223,394)"/>
<path d="M0 0 C1 3 1 3 0.21484375 4.8671875 C-2.720338 9.48089826 -5.60818784 12.73167467 -10 16 C-10.66 15.67 -11.32 15.34 -12 15 C-11.38511719 14.33613281 -10.77023438 13.67226563 -10.13671875 12.98828125 C-9.32847656 12.10527344 -8.52023438 11.22226562 -7.6875 10.3125 C-6.48673828 9.00732422 -6.48673828 9.00732422 -5.26171875 7.67578125 C-3.18451663 5.21829688 -1.56168424 2.80496684 0 0 Z " fill="#45A7C4" transform="translate(236,378)"/>
<path d="M0 0 C6.39205856 0.72362927 12.68027076 1.80343362 19 3 C18.34 3.66 17.68 4.32 17 5 C10.94963888 4.68155994 5.66214342 3.08398334 0 1 C0 0.67 0 0.34 0 0 Z " fill="#44AFCA" transform="translate(324,358)"/>
<path d="M0 0 C1.12752716 3.38258148 0.87098905 4.32595291 -0.1875 7.625 C-0.42855469 8.42164063 -0.66960938 9.21828125 -0.91796875 10.0390625 C-2 12 -2 12 -4.11328125 12.7734375 C-4.73589844 12.84820312 -5.35851563 12.92296875 -6 13 C-5.67 11.35 -5.34 9.7 -5 8 C-4.01 7.67 -3.02 7.34 -2 7 C-0.77030122 3.48809191 -0.77030122 3.48809191 0 0 Z " fill="#156E9B" transform="translate(46,222)"/>
<path d="M0 0 C-2.97 2.97 -5.94 5.94 -9 9 C-9.66 7.68 -10.32 6.36 -11 5 C-9.68 5 -8.36 5 -7 5 C-6.67 3.35 -6.34 1.7 -6 0 C-3 -1 -3 -1 0 0 Z " fill="#D5EDF6" transform="translate(95,161)"/>
<path d="M0 0 C3.59336471 0.99815686 4.95725379 1.94825458 7.375 4.875 C9 8 9 8 8.6015625 10.1953125 C8.40304687 10.79085937 8.20453125 11.38640625 8 12 C6.66382103 10.18959679 5.33112616 8.3766216 4 6.5625 C3.2575 5.55316406 2.515 4.54382813 1.75 3.50390625 C0 1 0 1 0 0 Z " fill="#D4F3F8" transform="translate(405,152)"/>
<path d="M0 0 C-4.62 2.64 -9.24 5.28 -14 8 C-14 7.01 -14 6.02 -14 5 C-12.68 4.67 -11.36 4.34 -10 4 C-10 3.34 -10 2.68 -10 2 C-4.5 -1.125 -4.5 -1.125 0 0 Z " fill="#D5F2F9" transform="translate(191,97)"/>
<path d="M0 0 C3.35808746 1.46916326 3.63978541 2.10160882 5 5.3125 C4.37351562 5.2403125 3.74703125 5.168125 3.1015625 5.09375 C2.28429687 5.0009375 1.46703125 4.908125 0.625 4.8125 C-0.18710937 4.7196875 -0.99921875 4.626875 -1.8359375 4.53125 C-3.96912825 4.27897649 -3.96912825 4.27897649 -6 4.3125 C-5.625 2.375 -5.625 2.375 -5 0.3125 C-3 -0.6875 -3 -0.6875 0 0 Z " fill="#116B9C" transform="translate(294,65.6875)"/>
<path d="M0 0 C3.65316671 1.24976756 4.78065836 1.67098753 7 5 C6.38125 5.103125 5.7625 5.20625 5.125 5.3125 C2.63473516 5.87525373 2.63473516 5.87525373 1 9 C0.34 9 -0.32 9 -1 9 C-0.67 6.03 -0.34 3.06 0 0 Z " fill="#126D9E" transform="translate(369,117)"/>
<path d="M0 0 C6.75 -0.125 6.75 -0.125 9 1 C9 1.99 9 2.98 9 4 C10.32 4 11.64 4 13 4 C12.67 4.99 12.34 5.98 12 7 C8.04 5.02 4.08 3.04 0 1 C0 0.67 0 0.34 0 0 Z " fill="#D4F4FA" transform="translate(297,67)"/>
<path d="M0 0 C-3.625 5.75 -3.625 5.75 -7 8 C-6.814375 7.4225 -6.62875 6.845 -6.4375 6.25 C-5.95976454 3.79307475 -6.24270636 2.35602466 -7 0 C-3.98968256 -0.93423645 -3.13349732 -1.04449911 0 0 Z " fill="#E1F8FB" transform="translate(231,385)"/>
<path d="M0 0 C1.32 0.66 2.64 1.32 4 2 C3.34 2 2.68 2 2 2 C2.33 5.3 2.66 8.6 3 12 C-0.91309271 8.08690729 -0.65319567 6.37546719 -1 1 C-0.67 0.67 -0.34 0.34 0 0 Z " fill="#23A5CB" transform="translate(289,332)"/>
<path d="M0 0 C0.33 1.32 0.66 2.64 1 4 C0.34 4 -0.32 4 -1 4 C-1.33 5.98 -1.66 7.96 -2 10 C-3.32 10.33 -4.64 10.66 -6 11 C-6 11.66 -6 12.32 -6 13 C-6.66 12.67 -7.32 12.34 -8 12 C-5.36 8.04 -2.72 4.08 0 0 Z " fill="#CFF5FB" transform="translate(435,317)"/>
<path d="M0 0 C0.66 0 1.32 0 2 0 C0.6062718 4.43458973 -1.60582235 6.87378374 -5 10 C-4.67 7.36 -4.34 4.72 -4 2 C-2.68 2 -1.36 2 0 2 C0 1.34 0 0.68 0 0 Z " fill="#33A6C5" transform="translate(431,320)"/>
<path d="M0 0 C0.33 0.66 0.66 1.32 1 2 C0.34 2 -0.32 2 -1 2 C-1 2.66 -1 3.32 -1 4 C-1.66 4 -2.32 4 -3 4 C-3.66 5.32 -4.32 6.64 -5 8 C-6.98 8 -8.96 8 -11 8 C-8.80861021 5.64270057 -6.56068027 3.97942902 -3.8125 2.3125 C-3.09707031 1.87550781 -2.38164062 1.43851562 -1.64453125 0.98828125 C-1.10183594 0.66214844 -0.55914062 0.33601563 0 0 Z M-7 8 C-5 9 -5 9 -5 9 Z " fill="#2A799E" transform="translate(147,123)"/>
<path d="M0 0 C-3.63423209 2.32590854 -6.77088331 2.16265833 -11 2 C-11 3.32 -11 4.64 -11 6 C-11.99 5.67 -12.98 5.34 -14 5 C-14.33 4.01 -14.66 3.02 -15 2 C-13.06524329 1.46906676 -11.12706845 0.95057683 -9.1875 0.4375 C-8.10855469 0.14746094 -7.02960938 -0.14257812 -5.91796875 -0.44140625 C-3 -1 -3 -1 0 0 Z " fill="#4BABC6" transform="translate(190,415)"/>
<path d="M0 0 C1.65 0 3.3 0 5 0 C0.76486783 3.96189783 -3.547001 5.43181728 -9 7 C-9 6.01 -9 5.02 -9 4 C-6.03 3.01 -3.06 2.02 0 1 C0 0.67 0 0.34 0 0 Z " fill="#D0F8FC" transform="translate(203,405)"/>
<path d="M0 0 C1.875 0.125 1.875 0.125 4 1 C5.25 4.0625 5.25 4.0625 6 7 C4.68 7 3.36 7 2 7 C1.34 4.69 0.68 2.38 0 0 Z " fill="#FBFBF1" transform="translate(296,345)"/>
<path d="M0 0 C2.22023926 2.22023926 2.99988963 3.98529101 4.1875 6.875 C4.55230469 7.73867187 4.91710937 8.60234375 5.29296875 9.4921875 C6.04664008 12.16543056 5.9388856 13.42852989 5 16 C3.26453924 13.39680887 2.34824767 11.47732763 1.375 8.5625 C1.11460937 7.80066406 0.85421875 7.03882813 0.5859375 6.25390625 C0 4 0 4 0 0 Z " fill="#317A9E" transform="translate(431,196)"/>
<path d="M0 0 C-2.64 2.97 -5.28 5.94 -8 9 C-9 6 -9 6 -7.8125 3.4375 C-5.5981602 0.45959476 -3.66251936 -1.83125968 0 0 Z " fill="#DAF1F6" transform="translate(76,179)"/>
<path d="M0 0 C1.45047396 2.90094791 0.45356803 4.55972596 -0.4375 7.625 C-0.72496094 8.62789063 -1.01242188 9.63078125 -1.30859375 10.6640625 C-1.53675781 11.43492187 -1.76492187 12.20578125 -2 13 C-2.33 13 -2.66 13 -3 13 C-3 10.69 -3 8.38 -3 6 C-3.66 5.67 -4.32 5.34 -5 5 C-3.35 3.35 -1.7 1.7 0 0 Z " fill="#BCF7FD" transform="translate(245,353)"/>
<path d="M0 0 C1.32 0.66 2.64 1.32 4 2 C4 2.66 4 3.32 4 4 C2.68 4 1.36 4 0 4 C0.33 5.32 0.66 6.64 1 8 C-0.32 8.99 -1.64 9.98 -3 11 C-2.835 10.401875 -2.67 9.80375 -2.5 9.1875 C-1.8885876 6.88655664 -1.8885876 6.88655664 -2 4 C-1 1.8125 -1 1.8125 0 0 Z " fill="#F1FBFA" transform="translate(84,162)"/>
<path d="M0 0 C1.10408203 0.13921875 1.10408203 0.13921875 2.23046875 0.28125 C1.23046875 2.28125 1.23046875 2.28125 -1.01953125 3.59375 C-4.08099101 5.47237304 -6.30902988 7.68014855 -8.76953125 10.28125 C-9.42953125 9.95125 -10.08953125 9.62125 -10.76953125 9.28125 C-9.55843211 7.76662478 -8.32489057 6.26992438 -7.08203125 4.78125 C-6.39753906 3.9459375 -5.71304688 3.110625 -5.0078125 2.25 C-2.76953125 0.28125 -2.76953125 0.28125 0 0 Z " fill="#236E95" transform="translate(255.76953125,48.71875)"/>
<path d="M0 0 C1 3 1 3 1 5 C-2.20269206 7.32923059 -5.44687712 9.26978364 -9 11 C-8.06558465 9.72689688 -7.12732889 8.456612 -6.1875 7.1875 C-5.66542969 6.47980469 -5.14335937 5.77210938 -4.60546875 5.04296875 C-3.16871123 3.21468607 -1.68184237 1.60103312 0 0 Z " fill="#169CD1" transform="translate(255,341)"/>
<path d="M0 0 C0.66 0 1.32 0 2 0 C0.68938409 4.23429756 -0.94356259 8.07407404 -3 12 C-3.33 12 -3.66 12 -4 12 C-4.50130606 6.73628638 -3.31168629 4.0909066 0 0 Z " fill="#D3F5FB" transform="translate(46,215)"/>
<path d="M0 0 C0 0.66 0 1.32 0 2 C-0.66 2 -1.32 2 -2 2 C-2.33 3.65 -2.66 5.3 -3 7 C-5.31 6.67 -7.62 6.34 -10 6 C-2.6 0 -2.6 0 0 0 Z " fill="#23719E" transform="translate(194,95)"/>
<path d="M0 0 C0.66 0.33 1.32 0.66 2 1 C0.54712339 2.33927721 -0.91247259 3.67126847 -2.375 5 C-3.18710938 5.7425 -3.99921875 6.485 -4.8359375 7.25 C-7 9 -7 9 -9 9 C-9 8.01 -9 7.02 -9 6 C-6.75 4.5 -6.75 4.5 -4 3 C-2.65368175 2.01755155 -1.31558703 1.02323436 0 0 Z " fill="#C6F6FC" transform="translate(222,393)"/>
<path d="M0 0 C1.14926266 0.95421808 2.29430541 1.91352045 3.4375 2.875 C4.07558594 3.40867187 4.71367188 3.94234375 5.37109375 4.4921875 C7 6 7 6 8 8 C5.125 7.6875 5.125 7.6875 2 7 C0 4 0 4 0 0 Z " fill="#CEE7F2" transform="translate(64,359)"/>
<path d="M0 0 C0.268125 0.639375 0.53625 1.27875 0.8125 1.9375 C1.88667752 4.33131686 1.88667752 4.33131686 5 5 C5.33 6.65 5.66 8.3 6 10 C5.01 10.495 5.01 10.495 4 11 C2.35 7.7 0.7 4.4 -1 1 C-0.67 0.67 -0.34 0.34 0 0 Z " fill="#D4F3F9" transform="translate(415,163)"/>
<path d="M0 0 C3.46941546 0.45822468 6.67395049 0.89131683 10 2 C9.67 3.32 9.34 4.64 9 6 C6.03 4.35 3.06 2.7 0 1 C0 0.67 0 0.34 0 0 Z " fill="#CFEEF8" transform="translate(310,74)"/>
<path d="M0 0 C3.96 0.33 7.92 0.66 12 1 C10.68 2.32 9.36 3.64 8 5 C7.34 5 6.68 5 6 5 C5.67 4.34 5.34 3.68 5 3 C2.47266765 2.34444881 2.47266765 2.34444881 0 2 C0 1.34 0 0.68 0 0 Z " fill="#0C699E" transform="translate(201,378)"/>
<path d="M0 0 C2.31 0 4.62 0 7 0 C7.33 1.32 7.66 2.64 8 4 C5.125 4.125 5.125 4.125 2 4 C1.34 3.34 0.68 2.68 0 2 C0 1.34 0 0.68 0 0 Z " fill="#27A6D1" transform="translate(320,354)"/>
<path d="M0 0 C3.36179774 1.44077046 5.59156268 3.24750021 8 6 C8 6.66 8 7.32 8 8 C8.66 8 9.32 8 10 8 C10 8.66 10 9.32 10 10 C6.82028869 8.62442924 4.95149011 7.10041354 2.75 4.4375 C1.96882813 3.50744141 1.96882813 3.50744141 1.171875 2.55859375 C0 1 0 1 0 0 Z " fill="#33A4C2" transform="translate(294,335)"/>
<path d="M0 0 C4.455 2.97 4.455 2.97 9 6 C8.34 6.66 7.68 7.32 7 8 C6.01 8 5.02 8 4 8 C3.34 6.35 2.68 4.7 2 3 C1.34 3 0.68 3 0 3 C0 2.01 0 1.02 0 0 Z " fill="#28739B" transform="translate(342,94)"/>
<path d="M0 0 C0.99 0 1.98 0 3 0 C3 0.99 3 1.98 3 3 C3.99 3 4.98 3 6 3 C6 4.98 6 6.96 6 9 C2.91910327 6.22719294 1.31224548 3.93673644 0 0 Z " fill="#206E98" transform="translate(48,336)"/>
<path d="M0 0 C0 0.66 0 1.32 0 2 C1.62626404 3.38232443 3.2925002 4.71937515 5 6 C4.67 6.66 4.34 7.32 4 8 C0.66666667 5.33333333 -2.66666667 2.66666667 -6 0 C-3 -1 -3 -1 0 0 Z " fill="#D1EFF6" transform="translate(342,90)"/>
<path d="M0 0 C1.41791408 0.45445964 2.83428046 0.91374944 4.25 1.375 C5.43335938 1.75785156 5.43335938 1.75785156 6.640625 2.1484375 C8.86627958 2.95173667 10.90931672 3.89711662 13 5 C8.83861737 5.08159574 5.0527516 4.98248524 1 4 C0.67 2.68 0.34 1.36 0 0 Z " fill="#21A5D1" transform="translate(323,385)"/>
<path d="M0 0 C3.40312738 1.05875074 6.01353231 2.00902154 9 4 C9 4.66 9 5.32 9 6 C9.66 6 10.32 6 11 6 C10.67 6.66 10.34 7.32 10 8 C8.33055479 6.85821872 6.6645052 5.71147095 5 4.5625 C4.071875 3.92441406 3.14375 3.28632813 2.1875 2.62890625 C1.465625 2.09136719 0.74375 1.55382812 0 1 C0 0.67 0 0.34 0 0 Z " fill="#BCEDF7" transform="translate(311,375)"/>
<path d="M0 0 C3.0916909 2.52956528 3.90931332 5.22454612 5 9 C4.01 9 3.02 9 2 9 C-0.29013653 5.5647952 -0.17842973 4.014669 0 0 Z " fill="#D7F1FA" transform="translate(40,322)"/>
<path d="M0 0 C0.66 0 1.32 0 2 0 C0.515 6.435 0.515 6.435 -1 13 C-1.33 13 -1.66 13 -2 13 C-2.05447047 11.58376784 -2.09300508 10.16691809 -2.125 8.75 C-2.14820313 7.96109375 -2.17140625 7.1721875 -2.1953125 6.359375 C-1.9828378 3.79268059 -1.28654105 2.2083933 0 0 Z " fill="#CCECF5" transform="translate(36,240)"/>
<path d="M0 0 C0.66 0.33 1.32 0.66 2 1 C1.01 3.97 0.02 6.94 -1 10 C-1.66 9.34 -2.32 8.68 -3 8 C-2.60495559 5.0371669 -1.40182371 2.61673759 0 0 Z " fill="#DAF6FC" transform="translate(40,227)"/>
<path d="M0 0 C1.32 0.33 2.64 0.66 4 1 C0.37 3.31 -3.26 5.62 -7 8 C-7 7.01 -7 6.02 -7 5 C-4.625 3.4375 -4.625 3.4375 -2 2 C-1.34 1.34 -0.68 0.68 0 0 Z " fill="#D3F4FA" transform="translate(138,126)"/>
<path d="M0 0 C-0.3125 1.9375 -0.3125 1.9375 -1 4 C-4 5 -4 5 -6.1875 4.0625 C-6.785625 3.711875 -7.38375 3.36125 -8 3 C-2.25 0 -2.25 0 0 0 Z " fill="#D2F8FC" transform="translate(329,410)"/>
<path d="M0 0 C0.66 0.33 1.32 0.66 2 1 C-0.64 3.64 -3.28 6.28 -6 9 C-6.66 8.34 -7.32 7.68 -8 7 C-6.68 6.34 -5.36 5.68 -4 5 C-4 4.34 -4 3.68 -4 3 C-2 1.375 -2 1.375 0 0 Z " fill="#149DD2" transform="translate(342,221)"/>
<path d="M0 0 C4.455 1.98 4.455 1.98 9 4 C9 4.66 9 5.32 9 6 C5.625 5.25 5.625 5.25 2 4 C1.34 2.68 0.68 1.36 0 0 Z " fill="#D9F3F9" transform="translate(263,49)"/>
<path d="M0 0 C2.95183101 2.95183101 3.08663988 5.95511947 4 10 C2.68 9.34 1.36 8.68 0 8 C0 5.36 0 2.72 0 0 Z " fill="#C8EBF5" transform="translate(37,312)"/>
<path d="M0 0 C0.66 0.33 1.32 0.66 2 1 C0.68 3.64 -0.64 6.28 -2 9 C-2.66 9 -3.32 9 -4 9 C-3.46930939 5.17902761 -2.50298434 2.93828597 0 0 Z " fill="#176992" transform="translate(54,206)"/>
<path d="M0 0 C0.33 1.32 0.66 2.64 1 4 C-1.375 5.5625 -1.375 5.5625 -4 7 C-4.66 6.67 -5.32 6.34 -6 6 C-4.02 4.02 -2.04 2.04 0 0 Z " fill="#196D92" transform="translate(93,162)"/>
<path d="M0 0 C1.32 0.33 2.64 0.66 4 1 C1.36 2.98 -1.28 4.96 -4 7 C-4.33 6.01 -4.66 5.02 -5 4 C-4.360625 3.71125 -3.72125 3.4225 -3.0625 3.125 C-0.84793921 2.17176549 -0.84793921 2.17176549 0 0 Z " fill="#D9F2F7" transform="translate(243,56)"/>
<path d="M0 0 C0 0.99 0 1.98 0 3 C-0.99 3.33 -1.98 3.66 -3 4 C-3.33 4.99 -3.66 5.98 -4 7 C-5.65 7.33 -7.3 7.66 -9 8 C-6.14723863 5.06799526 -3.34920216 2.35684596 0 0 Z " fill="#C5ECF5" transform="translate(229,368)"/>
<path d="M0 0 C0.99 0.33 1.98 0.66 3 1 C3 1.66 3 2.32 3 3 C4.2065625 3.433125 4.2065625 3.433125 5.4375 3.875 C8 5 8 5 9 7 C6.69 6.34 4.38 5.68 2 5 C2 4.01 2 3.02 2 2 C1.34 2 0.68 2 0 2 C0 1.34 0 0.68 0 0 Z " fill="#C1F2FB" transform="translate(301,344)"/>
<path d="M0 0 C0 0.99 0 1.98 0 3 C-0.66 3 -1.32 3 -2 3 C-2.33 3.99 -2.66 4.98 -3 6 C-6.0625 7.1875 -6.0625 7.1875 -9 8 C-6.14723863 5.06799526 -3.34920216 2.35684596 0 0 Z " fill="#2F7899" transform="translate(103,154)"/>
<path d="M0 0 C2.1875 -0.375 2.1875 -0.375 5 0 C6.99022836 1.83961648 8.38989899 3.79186148 10 6 C6.00499382 4.6302836 3.19990508 2.74277578 0 0 Z " fill="#BEE5F0" transform="translate(320,80)"/>
<path d="M0 0 C0 0.66 0 1.32 0 2 C-3.13498292 3.85776765 -5.37471432 4.20140476 -9 4 C-6.31059578 0.90718514 -4.07621501 0 0 0 Z " fill="#DBFAFC" transform="translate(342,404)"/>
<path d="M0 0 C3.3 1.65 6.6 3.3 10 5 C6 6 6 6 2.75 4.1875 C1.8425 3.465625 0.935 2.74375 0 2 C0 1.34 0 0.68 0 0 Z " fill="#D4F4FC" transform="translate(90,381)"/>
<path d="M0 0 C0.33 0.66 0.66 1.32 1 2 C-1.57784846 4.64752004 -3.91648098 6.94432065 -7 9 C-5.44499019 5.18315774 -2.96404505 2.80804268 0 0 Z " fill="#DCF7FC" transform="translate(237,361)"/>
<path d="M0 0 C0.66 0 1.32 0 2 0 C2.33 0.99 2.66 1.98 3 3 C0.03 5.475 0.03 5.475 -3 8 C-2.67 6.68 -2.34 5.36 -2 4 C-1.34 4 -0.68 4 0 4 C0 2.68 0 1.36 0 0 Z " fill="#277B9E" transform="translate(233,360)"/>
<path d="M0 0 C4.875 2.75 4.875 2.75 6 5 C4.35 4.67 2.7 4.34 1 4 C0.67 4.66 0.34 5.32 0 6 C0 4.02 0 2.04 0 0 Z " fill="#D4FAFE" transform="translate(293,337)"/>
<path d="M0 0 C0.66 0 1.32 0 2 0 C2 0.66 2 1.32 2 2 C2.99 2.33 3.98 2.66 5 3 C4.01 3.495 4.01 3.495 3 4 C2.34227572 7.02934491 2.34227572 7.02934491 2 10 C1.67 10 1.34 10 1 10 C0.67 6.7 0.34 3.4 0 0 Z " fill="#8CE3F1" transform="translate(291,334)"/>
<path d="M0 0 C0.66 0.66 1.32 1.32 2 2 C0.68 4.31 -0.64 6.62 -2 9 C-2.33 9 -2.66 9 -3 9 C-3 7.35 -3 5.7 -3 4 C-2.34 4 -1.68 4 -1 4 C-0.67 2.68 -0.34 1.36 0 0 Z " fill="#3DA7C4" transform="translate(436,311)"/>
<path d="M0 0 C0.99 0.33 1.98 0.66 3 1 C1.35 2.65 -0.3 4.3 -2 6 C-2.33 5.34 -2.66 4.68 -3 4 C-2.67 3.01 -2.34 2.02 -2 1 C-1.34 0.67 -0.68 0.34 0 0 Z " fill="#E3F7FA" transform="translate(78,172)"/>
<path d="M0 0 C3.96 1.98 3.96 1.98 8 4 C8 4.33 8 4.66 8 5 C6.02 5 4.04 5 2 5 C1.34 3.35 0.68 1.7 0 0 Z " fill="#2977A1" transform="translate(306,72)"/>
<path d="M0 0 C2.125 0.9375 2.125 0.9375 4 2 C0.25 5 0.25 5 -2 5 C-2 3.68 -2 2.36 -2 1 C-1.34 0.67 -0.68 0.34 0 0 Z " fill="#D2F0F2" transform="translate(229,67)"/>
<path d="M0 0 C1.98 1.65 3.96 3.3 6 5 C4.68 5.33 3.36 5.66 2 6 C0 3 0 3 0 0 Z " fill="#D0EEF8" transform="translate(72,367)"/>
<path d="M0 0 C0.66 0.33 1.32 0.66 2 1 C1.01 1.33 0.02 1.66 -1 2 C-1 2.66 -1 3.32 -1 4 C-3.31 4 -5.62 4 -8 4 C-5.31143836 2.20762558 -3.0466145 1.01553817 0 0 Z " fill="#C3F5F9" transform="translate(392,356)"/>
<path d="M0 0 C0.33 0.66 0.66 1.32 1 2 C0.3125 4.0625 0.3125 4.0625 -1 6 C-3.125 6.75 -3.125 6.75 -5 7 C-3.47793991 4.37098712 -2.15634036 2.15634036 0 0 Z " fill="#C0F1F8" transform="translate(426,330)"/>
<path d="M0 0 C0.99 0.33 1.98 0.66 3 1 C3.625 3.875 3.625 3.875 4 7 C3.34 7.66 2.68 8.32 2 9 C1.34 6.03 0.68 3.06 0 0 Z " fill="#20A4D8" transform="translate(438,244)"/>
<path d="M0 0 C-1.75 2 -1.75 2 -4 4 C-5.32 4 -6.64 4 -8 4 C-8 3.34 -8 2.68 -8 2 C-3.61016949 -1.20338983 -3.61016949 -1.20338983 0 0 Z " fill="#246E93" transform="translate(138,132)"/>
<path d="M0 0 C1.32 0.66 2.64 1.32 4 2 C3.01 2.33 2.02 2.66 1 3 C-0.68538601 4.99665314 -0.68538601 4.99665314 -2 7 C-2.66 6.67 -3.32 6.34 -4 6 C-2.68 4.02 -1.36 2.04 0 0 Z " fill="#1970A0" transform="translate(243,59)"/>
<path d="M0 0 C1.9375 0.3125 1.9375 0.3125 4 1 C4.33 1.99 4.66 2.98 5 4 C4.01 4.33 3.02 4.66 2 5 C1.01 4.01 0.02 3.02 -1 2 C-0.67 1.34 -0.34 0.68 0 0 Z " fill="#E1F4F9" transform="translate(289,60)"/>
</svg>
